<svg width="160" height="44" fill="none" xmlns="http://www.w3.org/2000/svg"><path d="M0 0h160v43.276H0z"/><path d="M2.204 43.272C1.48 43.33.481 42.743.187 41.96c-.156-.392-.235-.803-.156-1.253.078-.45.333-.92.685-1.254.255-.293.999-.528.881-.489l.079-.04.176-.078c.235-.097.45-.195.666-.313l1.35-.744 2.722-1.605c1.822-1.117 3.584-2.37 5.307-3.643 3.446-2.584 6.736-5.404 9.987-8.243a261.995 261.995 0 0 1 9.79-8.577c3.525-2.976 7.128-5.933 11.064-8.44 3.935-2.506 8.185-4.62 12.747-5.952 2.291-.647 4.64-1.097 7.03-1.254 2.408-.156 4.758-.058 7.069.196 4.62.549 9.34 1.92 13.295 4.72 3.936 2.8 6.815 6.97 8.087 11.591.079.294.157.588.216.882l.04.235c-.02-.02.038.078.038.49-.02.313-.156.645-.352.9a1.579 1.579 0 0 1-1.743.47c-.255-.059-.666-.43-.587-.372l-.06-.059a7.143 7.143 0 0 0-1.115-.881 9.549 9.549 0 0 0-2.663-1.155c-1.88-.49-3.975-.412-5.757.176-3.642 1.214-5.777 5.248-5.718 9.183 0 2.017.49 3.956 1.469 5.62.979 1.665 2.447 3.055 4.19 4.093 3.505 2.095 7.793 2.898 12.062 3.368 2.154.215 4.288.274 6.54.294l6.678.078 6.677.059c2.115.039 4.131-.275 5.894-1.156.861-.45 1.645-1.037 2.252-1.742a5.441 5.441 0 0 0 1.116-2.468c.156-.861.058-1.86-.235-2.682-.294-.842-.764-1.567-1.41-2.076a5.383 5.383 0 0 0-2.311-1.096 5.514 5.514 0 0 0-2.526-.04 7.42 7.42 0 0 0-2.349 1.058l-.138.098-.058.039a1.968 1.968 0 0 1-2.937-.666 1.98 1.98 0 0 1-.177-1.155c.079-.431.039-.177.079-.314.098-.313.215-.626.333-.92.254-.587.528-1.155.861-1.703 1.312-2.135 3.094-3.975 5.209-5.248 2.134-1.253 4.484-1.978 6.814-2.37 1.175-.215 2.35-.254 3.544-.313 1.214-.02 2.428.02 3.642.215 2.409.373 4.778 1.215 6.913 2.39 2.154 1.155 4.053 2.643 5.796 4.17 1.742 1.488 3.329 3.094 4.915 4.582 1.586 1.508 3.231 2.918 4.699 4.484 1.508 1.528 2.977 3.134 4.68 4.308.823.588 1.704 1.136 2.546 1.469l.313.137.157.059c-.098-.02.313.078.665.352.333.255.627.666.744 1.077.235.823 0 1.723-.744 2.31a2.22 2.22 0 0 1-1.155.432h-.627l-1.664-.02-6.677-.098-13.355-.196-26.709-.196c-35.56.06-71.158.255-106.777.588zm0-3.995l53.399.49c17.8.137 35.598.294 53.398.196l26.709-.275 13.354-.215 6.678-.117 1.664-.02h.411-.019c-.274.02-.666.117-.96.352a1.77 1.77 0 0 0 0 2.82c.294.235.646.313.47.255l-.235-.078-.45-.177c-1.234-.47-2.272-1.077-3.329-1.645-2.036-1.233-4.034-2.428-5.894-3.837-1.88-1.371-3.446-3.016-5.013-4.66-3.192-3.29-5.776-6.737-9.086-9.067-3.27-2.409-7.323-3.446-11.513-2.82-4.093.392-7.97 2.644-9.576 6.247-.196.45-.372.88-.509 1.35a4.892 4.892 0 0 0-.176.666c.02-.058-.059.255.02-.117a1.69 1.69 0 0 0-.157-.96 1.595 1.595 0 0 0-1.586-.88c-.314.019-.686.215-.803.313l.098-.079.215-.156c1.097-.803 2.35-1.371 3.721-1.606 2.761-.49 5.6.372 7.578 2.35.998.96 1.664 2.252 1.977 3.564a9.413 9.413 0 0 1 .059 3.916c-.548 2.643-2.506 4.7-4.68 5.874-2.212 1.175-4.699 1.567-7.029 1.567l-6.678.059-6.677.078c-2.193.039-4.523.059-6.795-.098-4.543-.294-9.262-1.214-13.433-3.74-2.075-1.253-3.935-3.016-5.208-5.209-1.253-2.173-1.84-4.719-1.821-7.147.039-2.467.626-4.954 1.938-7.128 1.273-2.173 3.388-3.935 5.816-4.777a13.062 13.062 0 0 1 7.402-.177 12.22 12.22 0 0 1 3.427 1.528c.528.352 1.037.705 1.527 1.155l.098.078c.137.118-.216-.215-.412-.254a1.243 1.243 0 0 0-1.37.372 1.4 1.4 0 0 0-.294.705c0 .333.04.372.02.274l-.04-.176c-.058-.235-.117-.49-.195-.725C87.07 13.391 84.407 9.944 81 7.712c-3.407-2.271-7.56-3.387-11.75-3.662-8.498-.802-16.447 2.86-23.184 7.97-3.387 2.565-6.54 5.463-9.36 8.714-2.897 3.426-6.246 6.697-9.927 9.418l-2.741 2.076-2.86 1.919a85.8 85.8 0 0 1-5.913 3.544c-2.036 1.097-4.073 2.154-6.207 3.094-1.077.47-2.154.92-3.29 1.273-.568.196-1.155.352-1.743.49-.313.058-.607.136-.92.215l-.235.059-.117.02c-.196.058.47-.138.685-.392a1.905 1.905 0 0 0 .47-2.135c-.235-.587-1.097-1.096-1.704-1.038z" fill="#4F5D2F"/></svg>