<svg width="160" height="44" viewBox="0 0 160 44" fill="none" xmlns="http://www.w3.org/2000/svg">
<rect width="160" height="43.276" fill="black" fill-opacity="0"/>
<path d="M2.20426 43.2719C1.47975 43.3306 0.481098 42.7432 0.187378 41.96C0.0307267 41.5683 -0.0475978 41.1571 0.0307276 40.7068C0.109053 40.2564 0.363611 39.7864 0.716075 39.4535C0.970633 39.1598 1.71472 38.9248 1.59724 38.964L1.67556 38.9249L1.85179 38.8465C2.08677 38.7486 2.30216 38.6507 2.51756 38.5332L3.86867 37.7891L6.59048 36.1835C8.41155 35.0673 10.1739 33.8141 11.897 32.5413C15.3433 29.9566 18.633 27.1369 21.8835 24.2976C25.0753 21.3604 28.267 18.5602 31.6742 15.7209C35.1988 12.7446 38.8018 9.78779 42.7377 7.28138C46.6735 4.77496 50.9227 2.66018 55.4851 1.32865C57.7761 0.682461 60.1259 0.232091 62.5148 0.0754405C64.9233 -0.0812104 67.2731 0.0166964 69.5837 0.271254C74.2049 0.819532 78.924 2.19023 82.8794 4.99036C86.8153 7.7905 89.6937 11.9613 90.9665 16.5825C91.0449 16.8762 91.1232 17.17 91.1819 17.4637L91.2211 17.6987C91.2015 17.6791 91.2603 17.777 91.2603 18.1882C91.2407 18.5015 91.1036 18.8344 90.9078 19.0889C90.4966 19.5785 89.7916 19.7939 89.165 19.5589C88.9105 19.5001 88.4993 19.1281 88.5776 19.1868L88.5189 19.1281C88.186 18.8148 87.8139 18.5015 87.4027 18.2469C86.5999 17.7378 85.6992 17.3462 84.7397 17.0916C82.8599 16.6021 80.7647 16.6804 78.9827 17.2679C75.3406 18.4819 73.2062 22.5157 73.265 26.4515C73.265 28.4684 73.7545 30.407 74.7336 32.0714C75.7127 33.7358 77.1813 35.1261 78.924 36.1639C82.4291 38.2591 86.7174 39.0619 90.9861 39.5319C93.1401 39.7473 95.2744 39.806 97.5263 39.8256L104.204 39.9039L110.881 39.9627C112.996 40.0018 115.012 39.6885 116.775 38.8074C117.636 38.357 118.42 37.7696 119.027 37.0646C119.614 36.3401 119.986 35.4785 120.143 34.5974C120.299 33.7358 120.201 32.7371 119.908 31.9147C119.614 31.0727 119.144 30.3482 118.498 29.8391C117.852 29.3104 117.049 28.9188 116.187 28.7425C115.326 28.5271 114.484 28.5272 113.661 28.7034C112.858 28.8992 112.036 29.2712 111.312 29.7608L111.174 29.8587L111.116 29.8978C110.959 30.0349 110.509 30.2699 110.117 30.2895C109.295 30.3678 108.551 29.937 108.179 29.2321C108.002 28.8796 107.944 28.4488 108.002 28.0768C108.081 27.646 108.041 27.9005 108.081 27.7635C108.179 27.4502 108.296 27.1369 108.414 26.8432C108.668 26.2557 108.942 25.6879 109.275 25.1396C110.587 23.0052 112.369 21.1646 114.484 19.8918C116.618 18.6386 118.968 17.9141 121.298 17.5224C122.473 17.307 123.648 17.2679 124.842 17.2091C126.056 17.1895 127.27 17.2287 128.484 17.4245C130.893 17.7966 133.262 18.6386 135.397 19.8134C137.551 20.9687 139.45 22.4569 141.193 23.9843C142.935 25.4725 144.522 27.0781 146.108 28.5663C147.694 30.0741 149.339 31.4839 150.807 33.0504C152.315 34.5778 153.784 36.1835 155.487 37.3583C156.31 37.9458 157.191 38.4941 158.033 38.8269L158.346 38.964L158.503 39.0228C158.405 39.0032 158.816 39.1011 159.168 39.3752C159.501 39.6298 159.795 40.041 159.912 40.4522C160.147 41.2746 159.912 42.1754 159.168 42.7628C158.816 43.0369 158.346 43.174 158.013 43.1936H157.386L155.722 43.174L149.045 43.0761L135.69 42.8803L108.981 42.6845C73.4216 42.7432 37.8227 42.939 2.20426 43.2719V43.2719ZM2.20426 39.2773L55.6026 39.7668C73.4021 39.9039 91.2015 40.0606 109.001 39.9627L135.71 39.6885L149.064 39.4731L155.742 39.3556L157.406 39.3361H157.817H157.798C157.524 39.3556 157.132 39.4535 156.838 39.6885C156.212 40.1781 156.016 40.9221 156.212 41.6075C156.31 41.96 156.544 42.2928 156.838 42.5082C157.132 42.7432 157.484 42.8215 157.308 42.7628L157.073 42.6845L156.623 42.5082C155.389 42.0383 154.351 41.4313 153.294 40.8634C151.258 39.6298 149.26 38.4353 147.4 37.0255C145.52 35.6548 143.954 34.0099 142.387 32.3651C139.195 29.0754 136.611 25.6291 133.301 23.2989C130.031 20.8904 125.978 19.8526 121.788 20.4792C117.695 20.8708 113.818 23.1227 112.212 26.7257C112.016 27.176 111.84 27.6068 111.703 28.0768C111.625 28.3118 111.566 28.5271 111.527 28.7425C111.547 28.6838 111.468 28.9971 111.547 28.6251C111.586 28.3313 111.547 27.9789 111.39 27.6656C111.096 27.0781 110.489 26.7257 109.804 26.7844C109.49 26.804 109.118 26.9998 109.001 27.0977L109.099 27.0194L109.314 26.8627C110.411 26.0599 111.664 25.492 113.035 25.2571C115.796 24.7675 118.635 25.6291 120.613 27.6068C121.611 28.5663 122.277 29.8587 122.59 31.1706C122.884 32.4826 122.904 33.7554 122.649 35.0869C122.101 37.7304 120.143 39.7864 117.969 40.9613C115.757 42.1362 113.27 42.5278 110.94 42.5278L104.262 42.5866L97.585 42.6649C95.3919 42.704 93.0617 42.7236 90.7903 42.567C86.2474 42.2733 81.5283 41.3529 77.3575 38.8269C75.2819 37.5737 73.4216 35.8114 72.1489 33.6183C70.8956 31.4448 70.3082 28.8992 70.3278 26.4711C70.3669 24.0039 70.9544 21.517 72.2663 19.3435C73.5391 17.17 75.6539 15.4076 78.082 14.5656C80.5297 13.7824 83.0752 13.7432 85.4838 14.3894C86.6978 14.7223 87.8531 15.2314 88.9105 15.9168C89.4392 16.2692 89.9483 16.6217 90.4378 17.0721L90.5357 17.1504C90.6728 17.2679 90.3203 16.935 90.1245 16.8958C89.6154 16.7196 89.0867 16.8762 88.7538 17.2679C88.5972 17.4637 88.4797 17.7378 88.4601 17.9728C88.4601 18.3057 88.4993 18.3448 88.4797 18.2469L88.4405 18.0707C88.3818 17.8357 88.3231 17.5812 88.2447 17.3462C87.0698 13.3908 84.4068 9.94444 80.9996 7.71217C77.5925 5.44073 73.4412 4.32459 69.2508 4.05045C60.7525 3.24762 52.8025 6.90933 46.0665 12.0201C42.6789 14.5852 39.5263 17.4833 36.7066 20.7338C33.8086 24.1605 30.4602 27.4306 26.7789 30.1524L24.0375 32.228L21.1786 34.147C19.2596 35.4002 17.2819 36.5947 15.265 37.6912C13.2286 38.7878 11.1921 39.8452 9.05773 40.7851C7.98076 41.255 6.90378 41.7054 5.76806 42.0579C5.2002 42.2537 4.61276 42.4103 4.02532 42.5474C3.71202 42.6061 3.4183 42.6845 3.105 42.7628L2.87002 42.8215L2.75254 42.8411C2.55672 42.8999 3.22249 42.7041 3.43788 42.4495C3.75119 42.1754 3.96658 41.7446 4.02532 41.3725C4.08407 41.0005 4.0449 40.648 3.90783 40.3151C3.67286 39.7277 2.81128 39.2186 2.20426 39.2773V39.2773Z" fill="#4F5D2F"/>
</svg>
